<?xml version="1.0" encoding="UTF-8"?>
<svg viewBox="0 0 634.4375 194.43752" xmlns="http://www.w3.org/2000/svg" xmlns:xlink="http://www.w3.org/1999/xlink">
 <defs>
  <linearGradient id="a">
   <stop stop-color="#804400" offset="0"/>
   <stop stop-color="#c38700" offset=".19565"/>
   <stop stop-color="#dfbf38" offset=".30811"/>
   <stop stop-color="#f7eb70" offset=".42565"/>
   <stop stop-color="#d8a820" offset=".5588"/>
   <stop stop-color="#f7ef70" offset=".69875"/>
   <stop stop-color="#b37700" offset=".84565"/>
   <stop stop-color="#f8f070" offset="1"/>
  </linearGradient>
  <linearGradient id="g" x1="-56.86" x2="707.64" y1="123.88" y2="499.92" gradientUnits="userSpaceOnUse">
   <stop stop-color="#a75900" offset="0"/>
   <stop stop-color="#f2a700" offset=".19565"/>
   <stop stop-color="#f8d956" offset=".30811"/>
   <stop stop-color="#ffff95" offset=".42565"/>
   <stop stop-color="#f1c23b" offset=".5588"/>
   <stop stop-color="#ffff95" offset=".69875"/>
   <stop stop-color="#e09400" offset=".84565"/>
   <stop stop-color="#ffff95" offset="1"/>
  </linearGradient>
  <linearGradient id="f" x1="523.45" x2="523.37" y1="451.91" y2="465.08" gradientUnits="userSpaceOnUse" xlink:href="#a"/>
  <linearGradient id="e" x1="204.33" x2="204.24" y1="230.14" y2="243.31" gradientUnits="userSpaceOnUse" xlink:href="#a"/>
  <radialGradient id="b" cx="44.194" cy="296.47" r="24.989" gradientUnits="userSpaceOnUse">
   <stop stop-color="#b25e00" offset="0"/>
   <stop stop-color="#f5a900" offset=".19565"/>
   <stop stop-color="#e5cd62" offset=".41415"/>
   <stop stop-color="#f9f1a0" offset=".53551"/>
   <stop stop-color="#e3ba47" offset=".71425"/>
   <stop stop-color="#f9f3a0" offset=".82308"/>
   <stop stop-color="#f1b618" offset="1"/>
  </radialGradient>
  <radialGradient id="d" cx="590" cy="33.855" r="316.72" gradientTransform="matrix(1.48 0 0 1.0625 -283.19 184.4)" gradientUnits="userSpaceOnUse" xlink:href="#a" spreadMethod="reflect"/>
  <radialGradient id="c" cx="44.194" cy="296.47" r="24.989" gradientUnits="userSpaceOnUse" xlink:href="#a"/>
 </defs>
 <g transform="translate(-22.781 -205.16)">
  <path d="m60 205.66a6.7089 6.7089 0 0 0 -6.7188 6.7188c0 12.943-10.338 23.281-23.281 23.281a6.7089 6.7089 0 0 0 -6.7188 6.7188v120a6.7089 6.7089 0 0 0 6.7188 6.7188c12.943 0 23.281 10.338 23.281 23.281a6.7089 6.7089 0 0 0 6.7188 6.7188h560a6.7089 6.7089 0 0 0 6.7188 -6.7188c0-12.943 10.338-23.281 23.281-23.281a6.7089 6.7089 0 0 0 6.7188 -6.7188v-120a6.7089 6.7089 0 0 0 -6.7188 -6.7188c-12.943 0-23.281-10.338-23.281-23.281a6.7089 6.7089 0 0 0 -6.7188 -6.7188h-560z" fill="url(#d)" fill-rule="evenodd" stroke="#382509"/>
  <path d="m60 212.38c0 16.569-13.431 30-30 30v120c16.569 0 30 13.431 30 30h560c0-16.569 13.431-30 30-30v-120c-16.569 0-30-13.431-30-30h-560z" fill="url(#g)" fill-rule="evenodd" stroke="#382509"/>
  <path d="m67.406 220.88-0.28125 1.125c-3.5168 13.418-14.082 23.983-27.5 27.5l-1.125 0.28125v105.19l1.125 0.28125c13.418 3.5168 23.983 14.082 27.5 27.5l0.28125 1.125h545.19l0.28125-1.125c3.5168-13.418 14.082-23.983 27.5-27.5l1.125-0.28125v-105.19l-1.125-0.28125c-13.418-3.5168-23.983-14.082-27.5-27.5l-0.28125-1.125h-545.19zm2.2188 3h540.75c3.9694 13.538 14.587 24.156 28.125 28.125v100.75c-13.538 3.9694-24.156 14.587-28.125 28.125h-540.75c-3.9694-13.538-14.587-24.156-28.125-28.125v-100.75c13.538-3.9695 24.156-14.587 28.125-28.125z" fill="#703400" opacity=".613"/>
  <path transform="matrix(1.1339 0 0 1.1339 564.96 -40.557)" d="m60.811 302.83c0 5.4673-4.4322 9.8995-9.8995 9.8995s-9.8995-4.4322-9.8995-9.8995 4.4322-9.8995 9.8995-9.8995 9.8995 4.4322 9.8995 9.8995z" fill="url(#c)" fill-rule="evenodd"/>
  <path transform="translate(571.78)" d="m60.811 302.83c0 5.4673-4.4322 9.8995-9.8995 9.8995s-9.8995-4.4322-9.8995-9.8995 4.4322-9.8995 9.8995-9.8995 9.8995 4.4322 9.8995 9.8995z" fill="url(#b)" fill-rule="evenodd"/>
  <path transform="matrix(.96593,-.25882,.25882,.96593,0,0)" d="m514.96 451.86h16.263v3.6239h-16.263z" fill="url(#f)" fill-rule="evenodd"/>
  <path transform="matrix(1.1339 0 0 1.1339 2.9596 -40.557)" d="m60.811 302.83c0 5.4673-4.4322 9.8995-9.8995 9.8995s-9.8995-4.4322-9.8995-9.8995 4.4322-9.8995 9.8995-9.8995 9.8995 4.4322 9.8995 9.8995z" fill="url(#c)" fill-rule="evenodd"/>
  <path transform="translate(9.7782)" d="m60.811 302.83c0 5.4673-4.4322 9.8995-9.8995 9.8995s-9.8995-4.4322-9.8995-9.8995 4.4322-9.8995 9.8995-9.8995 9.8995 4.4322 9.8995 9.8995z" fill="url(#b)" fill-rule="evenodd"/>
  <path transform="rotate(30)" d="m195.84 230.1h16.263v3.6239h-16.263z" fill="url(#e)" fill-rule="evenodd"/>
 </g>
</svg>
